<svg height="651" width="1184" xmlns="http://www.w3.org/2000/svg"><path d="m-51-1-7 617 1-42z" fill="#031325" stroke="#031325"/><path d="m-51-1-6 575 21-442z" fill="#071a2e" stroke="#071a2e"/><path d="m-51-1 15 133 25-70z" fill="#031325" stroke="#031325"/><path d="m-51-1 40 63-6-41z" fill="#021122" stroke="#021122"/><path d="m-51-1 34 22 36-23z" fill="#011021" stroke="#011021"/><path d="m-51-1 70-1 132-46z" fill="#021122" stroke="#021122"/><path d="m19-2-36 23 54 19z" fill="#021223" stroke="#021223"/><path d="m19-2 18 42 30-48z" fill="#031224" stroke="#031224"/><path d="m19-2 48-6 84-40z" fill="#021224" stroke="#021224"/><path d="m67-8-30 48 75-5z" fill="#041427" stroke="#041427"/><path d="m67-8 45 43 10-16z" fill="#041528" stroke="#041528"/><path d="m67-8 55 27 29-67z" fill="#031326" stroke="#031326"/><path d="m151-48-29 67 95-34z" fill="#041528" stroke="#041528"/><path d="m151-48 66 33 40 3z" fill="#051629" stroke="#051629"/><path d="m151-48 106 36 71-8z" fill="#05172a" stroke="#05172a"/><path d="m151-48 177 28 108-10z" fill="#06182b" stroke="#06182b"/><path d="m151-48 285 18 81-16z" fill="#07182c" stroke="#07182c"/><path d="m151-48 366 2 187-11z" fill="#08192c" stroke="#08192c"/><path d="m217-15-95 34 109 38z" fill="#05192c" stroke="#05192c"/><path d="m217-15 14 72 26-69z" fill="#06192e" stroke="#06192e"/><path d="m257-12-26 69 47-38z" fill="#061b2f" stroke="#061b2f"/><path d="m257-12 21 31 42-17z" fill="#06192e" stroke="#06192e"/><path d="m257-12 63 14 8-22z" fill="#06192d" stroke="#06192d"/><path d="m328-20-8 22 48 6zm0 0 40 28 50-22zm0 0 90 6 18-16z" fill="#071a2e" stroke="#071a2e"/><path d="m418-14-50 22 75 44z" fill="#081c32" stroke="#081c32"/><path d="m418-14 25 66 49-19z" fill="#091d33" stroke="#091d33"/><path d="m418-14 74 47-56-63z" fill="#081c30" stroke="#081c30"/><path d="m436-30 56 63 25-79z" fill="#081b2f" stroke="#081b2f"/><path d="m517-46-25 79 67-42z" fill="#071a2f" stroke="#071a2f"/><path d="m517-46 42 37 78-21z" fill="#06172a" stroke="#06172a"/><path d="m517-46 120 16 67-27z" fill="#051427" stroke="#051427"/><path d="m559-9-67 42 65 23z" fill="#081c31" stroke="#081c31"/><path d="m559-9-2 65 102-50z" fill="#06192e" stroke="#06192e"/><path d="m559-9 100 15-22-36z" fill="#05172a" stroke="#05172a"/><path d="m637-30 22 36 45-63z" fill="#041426" stroke="#041426"/><path d="m704-57-45 63 55 11z" fill="#031427" stroke="#031427"/><path d="m704-57 10 74 18-4z" fill="#031426" stroke="#031426"/><path d="m704-57 28 70 28-42z" fill="#031326" stroke="#031326"/><path d="m704-57 56 28 157-14z" fill="#051426" stroke="#051426"/><path d="m704-57 213 14 131-8z" fill="#07172a" stroke="#07172a"/><path d="m704-57 344 6h129z" fill="#081a2e" stroke="#081a2e"/><path d="m760-29-28 42 90-14z" fill="#051629" stroke="#051629"/><path d="m760-29 62 28 95-42z" fill="#05172a" stroke="#05172a"/><path d="m822-1-90 14 84 27z" fill="#05182c" stroke="#05182c"/><path d="m822-1-6 41 51-42z" fill="#06192d" stroke="#06192d"/><path d="m822-1 45-1 50-41z" fill="#06192c" stroke="#06192c"/><path d="m867-2-51 42 63-3z" fill="#071b2f" stroke="#071b2f"/><path d="m867-2 12 39 65-11z" fill="#081c31" stroke="#081c31"/><path d="m867-2 77 28-27-69z" fill="#071a2f" stroke="#071a2f"/><path d="m917-43 27 69 64-39z" fill="#081c31" stroke="#081c31"/><path d="m917-43 91 30 40-38z" fill="#091b30" stroke="#091b30"/><path d="m1008-13-64 39 16 26z" fill="#091f34" stroke="#091f34"/><path d="m1008-13-48 65 40 14z" fill="#0a2036" stroke="#0a2036"/><path d="m1008-13-8 79 37-9z" fill="#0b2137" stroke="#0b2137"/><path d="m1008-13 29 70 60-23z" fill="#0b2138" stroke="#0b2138"/><path d="m1008-13 89 47-49-85z" fill="#0a1f35" stroke="#0a1f35"/><path d="m1048-51 49 85 10-82z" fill="#0b1f35" stroke="#0b1f35"/><path d="m1048-51 59 3 70-3z" fill="#0b1e34" stroke="#0b1e34"/><path d="m1107-48-10 82 80-85z" fill="#0c2137" stroke="#0c2137"/><path d="m1177-51-80 85 89 14z" fill="#0d243b" stroke="#0d243b"/><path d="m1177-51 9 99 14-8z" fill="#0e253d" stroke="#0e253d"/><path d="m1177-51 23 91 48-58z" fill="#0d253c" stroke="#0d253c"/><path d="m1248-18-48 58 13 72z" fill="#102841" stroke="#102841"/><path d="m1248-18-35 130 13 85z" fill="#122c46" stroke="#122c46"/><path d="m1248-18-22 215 27 90z" fill="#132f4b" stroke="#132f4b"/><path d="m-17 21 6 41 48-22z" fill="#031325" stroke="#031325"/><path d="m37 40-48 22 36 34z" fill="#041528" stroke="#041528"/><path d="m37 40-12 56 87 17z" fill="#05182c" stroke="#05182c"/><path d="m37 40 75 73v-78z" fill="#05172b" stroke="#05172b"/><path d="m112 35v78l16-7z" fill="#061a2e" stroke="#061a2e"/><path d="m112 35 16 71 97-26z" fill="#071b2f" stroke="#071b2f"/><path d="m112 35 113 45-103-61z" fill="#06192d" stroke="#06192d"/><path d="m122 19 103 61 6-23z" fill="#071b2f" stroke="#071b2f"/><path d="m231 57-6 23 55 34z" fill="#091e34" stroke="#091e34"/><path d="m231 57 49 57-2-95z" fill="#081d33" stroke="#081d33"/><path d="m278 19 2 95 62-47z" fill="#091e34" stroke="#091e34"/><path d="m278 19 64 48-22-65zm42-17 22 65 26-59z" fill="#081c31" stroke="#081c31"/><path d="m368 8-26 59 33 2z" fill="#091e33" stroke="#091e33"/><path d="m368 8 7 61 68-17z" fill="#091e34" stroke="#091e34"/><path d="m443 52-68 17 61 7z" fill="#0a2036" stroke="#0a2036"/><path d="m443 52-7 24 57 23z" fill="#0b2137" stroke="#0b2137"/><path d="m443 52 50 47-1-66z" fill="#0a2037" stroke="#0a2037"/><path d="m492 33 1 66 64-43z" fill="#091f35" stroke="#091f35"/><path d="m557 56-64 43 89 2z" fill="#0a1f36" stroke="#0a1f36"/><path d="m557 56 25 45 49-22z" fill="#081d33" stroke="#081d33"/><path d="m557 56 74 23 28-73z" fill="#071a2f" stroke="#071a2f"/><path d="m659 6-28 73 83-62z" fill="#05182c" stroke="#05182c"/><path d="m714 17-83 62 32 34z" fill="#071a2f" stroke="#071a2f"/><path d="m714 17-51 96 72-20z" fill="#06192e" stroke="#06192e"/><path d="m714 17 21 76-3-80z" fill="#05172b" stroke="#05172b"/><path d="m732 13 3 80 81-53z" fill="#06192d" stroke="#06192d"/><path d="m816 40-81 53 92 19z" fill="#081d31" stroke="#081d31"/><path d="m816 40 11 72 28-28z" fill="#081d33" stroke="#081d33"/><path d="m816 40 39 44 24-47z" fill="#081c31" stroke="#081c31"/><path d="m879 37-24 47 99 20z" fill="#0a2035" stroke="#0a2035"/><path d="m879 37 75 67 6-52z" fill="#0a2036" stroke="#0a2036"/><path d="m879 37 81 15-16-26z" fill="#091e34" stroke="#091e34"/><path d="m960 52-6 52 46-38z" fill="#0b2239" stroke="#0b2239"/><path d="m1037 57-37 9 12 72z" fill="#0d243c" stroke="#0d243c"/><path d="m1037 57-25 81 58-53z" fill="#0d253d" stroke="#0d253d"/><path d="m1037 57 33 28 27-51z" fill="#0d243c" stroke="#0d243c"/><path d="m1097 34-27 51 47 16z" fill="#0e263e" stroke="#0e263e"/><path d="m1097 34 20 67 69-53z" fill="#0e273f" stroke="#0e273f"/><path d="m1186 48-69 53 75-2z" fill="#102942" stroke="#102942"/><path d="m1186 48 6 51 8-59z" fill="#0f2942" stroke="#0f2942"/><path d="m1200 40-8 59 21 13z" fill="#112a44" stroke="#112a44"/><path d="m-11 62-25 70 61-36z" fill="#051629" stroke="#051629"/><path d="m25 96-61 36 41 37z" fill="#06192d" stroke="#06192d"/><path d="m25 96-20 73 55-15z" fill="#061a2f" stroke="#061a2f"/><path d="m25 96 35 58 52-41z" fill="#061b2f" stroke="#061b2f"/><path d="m112 113-52 41 21 59z" fill="#081d32" stroke="#081d32"/><path d="m112 113-31 100 73-5zm0 0 42 95 10-85z" fill="#091e34" stroke="#091e34"/><path d="m112 113 52 10-36-17z" fill="#081d32" stroke="#081d32"/><path d="m128 106 36 17 61-43z" fill="#081d33" stroke="#081d33"/><path d="m225 80-61 43 65 12z" fill="#091f35" stroke="#091f35"/><path d="m225 80 4 55 51-21z" fill="#0a2036" stroke="#0a2036"/><path d="m280 114-51 21 23 13z" fill="#0a2139" stroke="#0a2139"/><path d="m280 114-28 34 15 34z" fill="#0b2239" stroke="#0b2239"/><path d="m280 114-13 68 66-23z" fill="#0b233a" stroke="#0b233a"/><path d="m280 114 53 45 9-92z" fill="#0b2138" stroke="#0b2138"/><path d="m342 67-9 92 40-19z" fill="#0b223a" stroke="#0b223a"/><path d="m342 67 31 73 2-71z" fill="#0a2137" stroke="#0a2137"/><path d="m375 69-2 71 63-64z" fill="#0b2138" stroke="#0b2138"/><path d="m436 76-63 64 104 38zm0 0 41 102 16-79z" fill="#0c243c" stroke="#0c243c"/><path d="m493 99-16 79 38-6z" fill="#0d253c" stroke="#0d253c"/><path d="m493 99 22 73 69-45z" fill="#0c233a" stroke="#0c233a"/><path d="m493 99 91 28-2-26z" fill="#0b2137" stroke="#0b2137"/><path d="m582 101 2 26 21 16z" fill="#0a2037" stroke="#0a2037"/><path d="m582 101 23 42 26-64z" fill="#091f35" stroke="#091f35"/><path d="m631 79-26 64 58-30z" fill="#091e34" stroke="#091e34"/><path d="m663 113-58 30 46 59z" fill="#0a2036" stroke="#0a2036"/><path d="m663 113-12 89 36-4z" fill="#0a1f36" stroke="#0a1f36"/><path d="m663 113 24 85 21-76z" fill="#091e34" stroke="#091e34"/><path d="m663 113 45 9 27-29z" fill="#071c31" stroke="#071c31"/><path d="m735 93-27 29 80 43z" fill="#081e33" stroke="#081e33"/><path d="m735 93 53 72 39-53z" fill="#091f35" stroke="#091f35"/><path d="m827 112-39 53 83 36z" fill="#0b2238" stroke="#0b2238"/><path d="m827 112 44 89 22-27z" fill="#0b233a" stroke="#0b233a"/><path d="m827 112 66 62-38-90z" fill="#0b2138" stroke="#0b2138"/><path d="m855 84 38 90 42-16z" fill="#0c233b" stroke="#0c233b"/><path d="m855 84 80 74 19-54z" fill="#0c233a" stroke="#0c233a"/><path d="m954 104-19 54 77-20z" fill="#0d253e" stroke="#0d253e"/><path d="m954 104 58 34-12-72z" fill="#0d243c" stroke="#0d243c"/><path d="m1070 85-58 53 63 21zm0 0 5 74 42-58z" fill="#0f2841" stroke="#0f2841"/><path d="m1117 101-42 58 79-15z" fill="#102a44" stroke="#102a44"/><path d="m1117 101 37 43 38-45z" fill="#112b44" stroke="#112b44"/><path d="m1192 99-38 45h47z" fill="#122d47" stroke="#122d47"/><path d="m1192 99 9 45 12-32z" fill="#122c47" stroke="#122c47"/><path d="m1213 112-12 32 25 53z" fill="#132e49" stroke="#132e49"/><path d="m-36 132-21 442 28-276z" fill="#051629" stroke="#051629"/><path d="m-36 132 7 166 28-113z" fill="#071a2e" stroke="#071a2e"/><path d="m-36 132 35 53 6-16z" fill="#06192d" stroke="#06192d"/><path d="m5 169-6 16 37 30z" fill="#071b2f" stroke="#071b2f"/><path d="m5 169 31 46 24-61z" fill="#071b30" stroke="#071b30"/><path d="m60 154-24 61 45-2z" fill="#081c32" stroke="#081c32"/><path d="m164 123-10 85 75-73z" fill="#0a2037" stroke="#0a2037"/><path d="m229 135-75 73 53 19z" fill="#0a2138" stroke="#0a2138"/><path d="m229 135-22 92 45-79z" fill="#0b2239" stroke="#0b2239"/><path d="m252 148-45 79 60-45z" fill="#0b233a" stroke="#0b233a"/><path d="m333 159-66 23 71 17zm0 0 5 40 35-59z" fill="#0c243b" stroke="#0c243b"/><path d="m373 140-35 59 68 32z" fill="#0d253d" stroke="#0d253d"/><path d="m373 140 33 91 20-12z" fill="#0d263e" stroke="#0d263e"/><path d="m373 140 53 79 51-41z" fill="#0d263d" stroke="#0d263d"/><path d="m477 178-51 41 75-34z" fill="#0e263f" stroke="#0e263f"/><path d="m477 178 24 7 14-13zm38-6-14 13 48 12z" fill="#0d253d" stroke="#0d253d"/><path d="m515 172 34 25 35-70z" fill="#0c233a" stroke="#0c233a"/><path d="m584 127-35 70 56-54zm21 16-56 54 102 5z" fill="#0b2239" stroke="#0b2239"/><path d="m708 122-21 76 37-24z" fill="#081e33" stroke="#081e33"/><path d="m708 122 16 52 64-9z" fill="#091e35" stroke="#091e35"/><path d="m724 174-37 24 35 63z" fill="#091f35" stroke="#091f35"/><path d="m724 174-2 87 57-54zm0 0 55 33 9-42z" fill="#0a2037" stroke="#0a2037"/><path d="m788 165-9 42 45 28z" fill="#0b2239" stroke="#0b2239"/><path d="m788 165 36 70 47-34z" fill="#0c233a" stroke="#0c233a"/><path d="m893 174-22 27 72 22z" fill="#0d253d" stroke="#0d253d"/><path d="m893 174 50 49-8-65z" fill="#0d253e" stroke="#0d253e"/><path d="m935 158 8 65 49 10zm0 0 57 75 20-95z" fill="#0e2740" stroke="#0e2740"/><path d="m1012 138-20 95 42 5zm0 0 22 100 41-79z" fill="#102942" stroke="#102942"/><path d="m1075 159-41 79 53-59z" fill="#102a44" stroke="#102a44"/><path d="m1075 159 12 20 46 4z" fill="#112b45" stroke="#112b45"/><path d="m1075 159 58 24 21-39z" fill="#112c45" stroke="#112c45"/><path d="m1087 179-53 59 33 9z" fill="#112b45" stroke="#112b45"/><path d="m1087 179-20 68 66-64z" fill="#112c46" stroke="#112c46"/><path d="m1154 144-21 39 60 32z" fill="#122d48" stroke="#122d48"/><path d="m1154 144 39 71 8-71z" fill="#122e49" stroke="#122e49"/><path d="m1201 144-8 71 33-18z" fill="#132f4a" stroke="#132f4a"/><path d="m-1 185-28 113 65-83z" fill="#081c30" stroke="#081c30"/><path d="m36 215-65 83 38-3z" fill="#081c31" stroke="#081c31"/><path d="m36 215-27 80 103-32zm0 0 76 48-31-50z" fill="#091e34" stroke="#091e34"/><path d="m81 213 31 50 42-55z" fill="#0a1f36" stroke="#0a1f36"/><path d="m154 208-42 55 22 34z" fill="#0b2138" stroke="#0b2138"/><path d="m154 208-20 89 59-4z" fill="#0b2239" stroke="#0b2239"/><path d="m154 208 39 85 14-66z" fill="#0b223a" stroke="#0b223a"/><path d="m207 227-14 66 60-7z" fill="#0c243b" stroke="#0c243b"/><path d="m207 227 46 59 14-104z" fill="#0c243c" stroke="#0c243c"/><path d="m267 182-14 104 85-87z" fill="#0d243c" stroke="#0d243c"/><path d="m338 199-85 87 99-10z" fill="#0e263e" stroke="#0e263e"/><path d="m338 199 14 77 37-25z" fill="#0e263f" stroke="#0e263f"/><path d="m338 199 51 52 17-20z" fill="#0e263e" stroke="#0e263e"/><path d="m406 231-17 20 89 45z" fill="#0f2840" stroke="#0f2840"/><path d="m406 231 72 65-52-77z" fill="#0f2740" stroke="#0f2740"/><path d="m426 219 52 77 23-111z" fill="#0f2840" stroke="#0f2840"/><path d="m501 185-23 111 61-32z" fill="#0f273f" stroke="#0f273f"/><path d="m501 185 38 79 10-67zm48 12-10 67 46 18z" fill="#0d253d" stroke="#0d253d"/><path d="m549 197 36 85 66-80z" fill="#0c233b" stroke="#0c233b"/><path d="m651 202-66 80 60 7z" fill="#0c233a" stroke="#0c233a"/><path d="m651 202-6 87 38-33z" fill="#0b2138" stroke="#0b2138"/><path d="m651 202 32 54 4-58z" fill="#0a2037" stroke="#0a2037"/><path d="m687 198-4 58 39 5z" fill="#0a2036" stroke="#0a2036"/><path d="m779 207-57 54 68 29z" fill="#0b2239" stroke="#0b2239"/><path d="m779 207 11 83 34-55z" fill="#0c233a" stroke="#0c233a"/><path d="m824 235-34 55 60-41zm0 0 26 14 21-48z" fill="#0d243c" stroke="#0d243c"/><path d="m871 201-21 48 86 19z" fill="#0d263e" stroke="#0d263e"/><path d="m871 201 65 67 7-45z" fill="#0e263f" stroke="#0e263f"/><path d="m943 223-7 45 56-35z" fill="#0f2841" stroke="#0f2841"/><path d="m992 233-56 35 79-15z" fill="#102942" stroke="#102942"/><path d="m992 233 23 20 19-15z" fill="#102a44" stroke="#102a44"/><path d="m1034 238-19 15 52-6z" fill="#112b45" stroke="#112b45"/><path d="m1133 183-66 64 49 35z" fill="#122d47" stroke="#122d47"/><path d="m1133 183-17 99 58-36z" fill="#132e49" stroke="#132e49"/><path d="m1133 183 41 63 19-31z" fill="#132f49" stroke="#132f49"/><path d="m1193 215-19 31 79 41z" fill="#15314c" stroke="#15314c"/><path d="m1193 215 60 72-27-90z" fill="#15314d" stroke="#15314d"/><path d="m-29 298-28 276 37-186z" fill="#041528" stroke="#041528"/><path d="m-29 298 9 90 12-61z" fill="#05172a" stroke="#05172a"/><path d="m-29 298 21 29 17-32zm38-3-17 32 37 10z" fill="#06192d" stroke="#06192d"/><path d="m9 295 20 42 33 7z" fill="#06192e" stroke="#06192e"/><path d="m9 295 53 49 50-81z" fill="#081c31" stroke="#081c31"/><path d="m112 263-50 81 72-47z" fill="#091d33" stroke="#091d33"/><path d="m134 297-72 47 63-1z" fill="#081c31" stroke="#081c31"/><path d="m134 297-9 46 65-41z" fill="#091e34" stroke="#091e34"/><path d="m134 297 56 5 3-9z" fill="#0a2037" stroke="#0a2037"/><path d="m193 293-3 9 63-16zm60-7-63 16 68 29z" fill="#0b2239" stroke="#0b2239"/><path d="m253 286 5 45 58 25z" fill="#0b2138" stroke="#0b2138"/><path d="m253 286 63 70 36-80z" fill="#0b233b" stroke="#0b233b"/><path d="m352 276-36 80 55-2z" fill="#0b2239" stroke="#0b2239"/><path d="m352 276 19 78 18-103z" fill="#0d253d" stroke="#0d253d"/><path d="m389 251-18 103h80z" fill="#0c243b" stroke="#0c243b"/><path d="m389 251 62 103 27-58z" fill="#0d253e" stroke="#0d253e"/><path d="m478 296-27 58 53-5z" fill="#0c243b" stroke="#0c243b"/><path d="m478 296 26 53 35-85z" fill="#0d253c" stroke="#0d253c"/><path d="m539 264-35 85 82-5z" fill="#0b223a" stroke="#0b223a"/><path d="m539 264 47 80-1-62z" fill="#0c233a" stroke="#0c233a"/><path d="m585 282 1 62 38-3z" fill="#0a2037" stroke="#0a2037"/><path d="m585 282 39 59 21-52z" fill="#0b2137" stroke="#0b2137"/><path d="m645 289-21 52 86-29z" fill="#091e34" stroke="#091e34"/><path d="m645 289 65 23-27-56z" fill="#0a2036" stroke="#0a2036"/><path d="m683 256 27 56 12-51z" fill="#0a1f35" stroke="#0a1f35"/><path d="m722 261-12 51 80-22z" fill="#0a2036" stroke="#0a2036"/><path d="m790 290-80 22 30 35z" fill="#091e34" stroke="#091e34"/><path d="m790 290-50 57 75-20z" fill="#091f35" stroke="#091f35"/><path d="m790 290 25 37 35-78z" fill="#0c2239" stroke="#0c2239"/><path d="m850 249-35 78 75 11z" fill="#0c233a" stroke="#0c233a"/><path d="m850 249 40 89 46-70z" fill="#0d253d" stroke="#0d253d"/><path d="m936 268-46 70 53 4zm0 0 7 74 29 14z" fill="#0d243c" stroke="#0d243c"/><path d="m936 268 36 88 43-103zm79-15-43 103 77-31z" fill="#0f2740" stroke="#0f2740"/><path d="m1015 253 34 72 18-78zm52-6-18 78 67-43z" fill="#112b45" stroke="#112b45"/><path d="m1116 282-67 43 61 20z" fill="#102a43" stroke="#102a43"/><path d="m1116 282-6 63 40 5z" fill="#112a44" stroke="#112a44"/><path d="m1116 282 34 68 24-104z" fill="#122d48" stroke="#122d48"/><path d="m1174 246-24 104 98-42z" fill="#132e49" stroke="#132e49"/><path d="m1174 246 74 62 5-21z" fill="#14314c" stroke="#14314c"/><path d="m1253 287-5 21 3 85z" fill="#132f49" stroke="#132f49"/><path d="m-8 327-12 61 45-25z" fill="#041629" stroke="#041629"/><path d="m-8 327 33 36 4-26z" fill="#06182b" stroke="#06182b"/><path d="m29 337-4 26 37-19zm33 7-37 19 76 11z" fill="#05182c" stroke="#05182c"/><path d="m62 344 39 30 24-31z" fill="#071a2e" stroke="#071a2e"/><path d="m125 343-24 31 28 21z" fill="#06192e" stroke="#06192e"/><path d="m125 343 4 52 59 9z" fill="#071a2f" stroke="#071a2f"/><path d="m125 343 63 61 2-102z" fill="#081d32" stroke="#081d32"/><path d="m190 302-2 102 70-73z" fill="#091f35" stroke="#091f35"/><path d="m258 331-70 73 81-42z" fill="#091e34" stroke="#091e34"/><path d="m258 331 11 31 47-6z" fill="#0a2037" stroke="#0a2037"/><path d="m316 356-47 6 52 5z" fill="#092036" stroke="#092036"/><path d="m316 356 5 11 50-13z" fill="#0a2037" stroke="#0a2037"/><path d="m371 354-50 13 62 60z" fill="#0a1f35" stroke="#0a1f35"/><path d="m371 354 12 73 25-55z" fill="#091f36" stroke="#091f36"/><path d="m371 354 37 18 43-18z" fill="#0b2138" stroke="#0b2138"/><path d="m451 354-43 18 43 48z" fill="#0a2037" stroke="#0a2037"/><path d="m451 354v66l53-71z" fill="#0b2138" stroke="#0b2138"/><path d="m504 349-53 71 78-36zm0 0 25 35 57-40z" fill="#0a2036" stroke="#0a2036"/><path d="m586 344-57 40 55-20z" fill="#091f35" stroke="#091f35"/><path d="m586 344-2 20 20-2zm0 0 18 18 20-21z" fill="#091e34" stroke="#091e34"/><path d="m624 341-20 21 61 58z" fill="#071c31" stroke="#071c31"/><path d="m624 341 41 79 27-3z" fill="#061a2e" stroke="#061a2e"/><path d="m624 341 68 76 18-105z" fill="#071b30" stroke="#071b30"/><path d="m710 312-18 105 48-70z" fill="#061a2f" stroke="#061a2f"/><path d="m740 347-48 70 41 1z" fill="#05192d" stroke="#05192d"/><path d="m740 347-7 71 68 12z" fill="#071a2f" stroke="#071a2f"/><path d="m740 347 61 83 31-65z" fill="#071b31" stroke="#071b31"/><path d="m740 347 92 18-17-38z" fill="#091e34" stroke="#091e34"/><path d="m815 327 17 38 10 1z" fill="#091f35" stroke="#091f35"/><path d="m815 327 27 39 48-28z" fill="#0a2036" stroke="#0a2036"/><path d="m890 338-48 28 58 40z" fill="#0a1f35" stroke="#0a1f35"/><path d="m890 338 10 68 43-64z" fill="#0a2138" stroke="#0a2138"/><path d="m943 342-43 64 72-50zm29 14-72 50 110 19z" fill="#0b2138" stroke="#0b2138"/><path d="m972 356 38 69 3-45z" fill="#0b223a" stroke="#0b223a"/><path d="m972 356 41 24 36-55z" fill="#0d253d" stroke="#0d253d"/><path d="m1049 325-36 55 15 12z" fill="#0d253c" stroke="#0d253c"/><path d="m1049 325-21 67 82-47z" fill="#0e263f" stroke="#0e263f"/><path d="m1110 345-82 47 84 50z" fill="#0d253d" stroke="#0d253d"/><path d="m1110 345 2 97 26-64z" fill="#0e263e" stroke="#0e263e"/><path d="m1110 345 28 33 12-28z" fill="#102941" stroke="#102941"/><path d="m1150 350-12 28 24-10z" fill="#102942" stroke="#102942"/><path d="m1150 350 12 18 86-60z" fill="#112b45" stroke="#112b45"/><path d="m1248 308-86 60 89 25z" fill="#122b46" stroke="#122b46"/><path d="m-20 388-37 186 43-105z" fill="#06192c" stroke="#06192c"/><path d="m-20 388 6 81 58-20z" fill="#05172a" stroke="#05172a"/><path d="m-20 388 64 61-19-86z" fill="#041529" stroke="#041529"/><path d="m25 363 19 86 57-75z" fill="#04172a" stroke="#04172a"/><path d="m101 374-57 75 69-3zm0 0 12 72 16-51z" fill="#06192d" stroke="#06192d"/><path d="m129 395-16 51 57 21zm0 0 41 72 18-63z" fill="#071c31" stroke="#071c31"/><path d="m188 404-18 63 51-41z" fill="#081e34" stroke="#081e34"/><path d="m188 404 33 22 48-64z" fill="#081d32" stroke="#081d32"/><path d="m269 362-48 64 83 12z" fill="#091e34" stroke="#091e34"/><path d="m269 362 35 76 17-71z" fill="#081e33" stroke="#081e33"/><path d="m321 367-17 71 79-11z" fill="#0a1f36" stroke="#0a1f36"/><path d="m408 372-25 55 68-7z" fill="#0a2037" stroke="#0a2037"/><path d="m451 420-68 7 85 17z" fill="#0b2239" stroke="#0b2239"/><path d="m451 420 17 24 61-60z" fill="#0b2138" stroke="#0b2138"/><path d="m529 384-61 60 32 16z" fill="#0b2239" stroke="#0b2239"/><path d="m529 384-29 76 78-24z" fill="#0a2037" stroke="#0a2037"/><path d="m529 384 49 52 6-72z" fill="#081d33" stroke="#081d33"/><path d="m584 364-6 72 26-74z" fill="#081c32" stroke="#081c32"/><path d="m604 362-26 74 34 8z" fill="#091e33" stroke="#091e33"/><path d="m604 362 8 82 53-24z" fill="#081c31" stroke="#081c31"/><path d="m692 417-27 3 16 71z" fill="#081c32" stroke="#081c32"/><path d="m692 417-11 74 50-14z" fill="#081d32" stroke="#081d32"/><path d="m692 417 39 60 2-59z" fill="#071c31" stroke="#071c31"/><path d="m733 418-2 59 70-47z" fill="#081d32" stroke="#081d32"/><path d="m832 365-31 65 41-64z" fill="#081c32" stroke="#081c32"/><path d="m842 366-41 64 99-24z" fill="#091d33" stroke="#091d33"/><path d="m900 406-99 24 94 15z" fill="#0a1f36" stroke="#0a1f36"/><path d="m900 406-5 39 63 30z" fill="#0c2239" stroke="#0c2239"/><path d="m900 406 58 69 52-50z" fill="#0c233b" stroke="#0c233b"/><path d="m1013 380-3 45 18-33z" fill="#0c233a" stroke="#0c233a"/><path d="m1028 392-18 33 69 52z" fill="#0e263e" stroke="#0e263e"/><path d="m1028 392 51 85 33-35z" fill="#0f2740" stroke="#0f2740"/><path d="m1138 378-26 64 84 11z" fill="#102942" stroke="#102942"/><path d="m1138 378 58 75-34-85z" fill="#0f2841" stroke="#0f2841"/><path d="m1162 368 34 85 55-60z" fill="#102a43" stroke="#102a43"/><path d="m1251 393-55 60 15 2z" fill="#112c46" stroke="#112c46"/><path d="m1251 393-40 62 11 74z" fill="#132e49" stroke="#132e49"/><path d="m1251 393-29 136 24 123z" fill="#15324f" stroke="#15324f"/><path d="m-14 469-43 105 35-37z" fill="#081c30" stroke="#081c30"/><path d="m-14 469-8 68 78-43z" fill="#071b30" stroke="#071b30"/><path d="m-14 469 70 25-12-45z" fill="#071a2f" stroke="#071a2f"/><path d="m44 449 12 45 57-48z" fill="#081b30" stroke="#081b30"/><path d="m113 446-57 48 68 12z" fill="#091d33" stroke="#091d33"/><path d="m113 446 11 60 46-39z" fill="#091e34" stroke="#091e34"/><path d="m170 467-46 39 101-4z" fill="#0b2037" stroke="#0b2037"/><path d="m170 467 55 35-4-76z" fill="#0a2037" stroke="#0a2037"/><path d="m221 426 4 76 52-45z" fill="#0a2138" stroke="#0a2138"/><path d="m221 426 56 31 27-19z" fill="#0a2037" stroke="#0a2037"/><path d="m277 457-52 45 43 18z" fill="#0c243b" stroke="#0c243b"/><path d="m277 457-9 63 49-6z" fill="#0c243c" stroke="#0c243c"/><path d="m277 457 40 57-13-76z" fill="#0b233a" stroke="#0b233a"/><path d="m304 438 13 76 66-87z" fill="#0b223a" stroke="#0b223a"/><path d="m383 427-66 87 77 3z" fill="#0d253c" stroke="#0d253c"/><path d="m383 427 11 90 74-73z" fill="#0d243c" stroke="#0d243c"/><path d="m468 444-74 73 83-14z" fill="#0d263e" stroke="#0d263e"/><path d="m468 444 9 59 23-43z" fill="#0d253d" stroke="#0d253d"/><path d="m500 460-23 43 63 10z" fill="#0e253d" stroke="#0e253d"/><path d="m500 460 40 53 23-16z" fill="#0d243c" stroke="#0d243c"/><path d="m500 460 63 37 15-61z" fill="#0c2239" stroke="#0c2239"/><path d="m578 436-15 61 49-53z" fill="#0a2137" stroke="#0a2137"/><path d="m612 444-49 53 91 17z" fill="#0b2238" stroke="#0b2238"/><path d="m612 444 42 70 27-23z" fill="#0a2036" stroke="#0a2036"/><path d="m612 444 69 47-16-71z" fill="#091e34" stroke="#091e34"/><path d="m731 477-50 14 67-1z" fill="#091f34" stroke="#091f34"/><path d="m731 477 17 13 53-60z" fill="#091e34" stroke="#091e34"/><path d="m801 430-53 60 47 33z" fill="#0a2037" stroke="#0a2037"/><path d="m801 430-6 93 61-6z" fill="#0c2239" stroke="#0c2239"/><path d="m801 430 55 87 39-72z" fill="#0b2138" stroke="#0b2138"/><path d="m895 445-39 72 72-26z" fill="#0d243c" stroke="#0d243c"/><path d="m895 445 33 46 30-16z" fill="#0d253c" stroke="#0d253c"/><path d="m958 475-30 16 54 26z" fill="#0e2740" stroke="#0e2740"/><path d="m958 475 24 42 28-92z" fill="#0e263f" stroke="#0e263f"/><path d="m1010 425-28 92h69z" fill="#0f2941" stroke="#0f2941"/><path d="m1010 425 41 92 28-40z" fill="#0f2942" stroke="#0f2942"/><path d="m1079 477-28 40 32 21z" fill="#112c46" stroke="#112c46"/><path d="m1079 477 4 61 116-25z" fill="#122e48" stroke="#122e48"/><path d="m1079 477 120 36-87-71z" fill="#122c46" stroke="#122c46"/><path d="m1112 442 87 71-3-60z" fill="#122d47" stroke="#122d47"/><path d="m1196 453 3 60 12-58z" fill="#132e49" stroke="#132e49"/><path d="m1211 455-12 58 23 16z" fill="#14304b" stroke="#14304b"/><path d="m-22 537-35 37 68 73z" fill="#0a1f36" stroke="#0a1f36"/><path d="m-22 537 33 110 39-87z" fill="#0b2037" stroke="#0b2037"/><path d="m-22 537 72 23 6-66z" fill="#091e34" stroke="#091e34"/><path d="m56 494-6 66 61-32zm0 0 55 34 13-22z" fill="#0a1f35" stroke="#0a1f35"/><path d="m111 528-61 32 58-15z" fill="#0b2138" stroke="#0b2138"/><path d="m111 528-3 17 16-39z" fill="#0a2137" stroke="#0a2137"/><path d="m124 506-16 39 118 22z" fill="#0c233a" stroke="#0c233a"/><path d="m124 506 102 61-1-65z" fill="#0c243b" stroke="#0c243b"/><path d="m225 502 1 65 42-47z" fill="#0d253d" stroke="#0d253d"/><path d="m268 520-42 47 67 5z" fill="#0e2740" stroke="#0e2740"/><path d="m268 520 25 52 24-58z" fill="#0e273f" stroke="#0e273f"/><path d="m317 514-24 58 27-10z" fill="#0f2841" stroke="#0f2841"/><path d="m317 514 3 48 61-13z" fill="#0f2840" stroke="#0f2840"/><path d="m317 514 64 35 13-32z" fill="#0e2740" stroke="#0e2740"/><path d="m394 517-13 32 48 38z" fill="#0f2942" stroke="#0f2942"/><path d="m394 517 35 70 48-84z" fill="#0f2941" stroke="#0f2941"/><path d="m477 503-48 84 69 20z" fill="#112b45" stroke="#112b45"/><path d="m477 503 21 104 29-31z" fill="#102a44" stroke="#102a44"/><path d="m477 503 50 73 13-63z" fill="#0f2740" stroke="#0f2740"/><path d="m540 513-13 63 51 22z" fill="#0f2841" stroke="#0f2841"/><path d="m540 513 38 85-15-101z" fill="#0e263e" stroke="#0e263e"/><path d="m563 497 15 101 54-23z" fill="#0e263f" stroke="#0e263f"/><path d="m563 497 69 78 22-61z" fill="#0d243b" stroke="#0d243b"/><path d="m654 514-22 61 56 24z" fill="#0d253d" stroke="#0d253d"/><path d="m654 514 34 85-7-108z" fill="#0c2239" stroke="#0c2239"/><path d="m681 491 7 108 85-41z" fill="#0b2239" stroke="#0b2239"/><path d="m681 491 92 67-25-68z" fill="#0a2137" stroke="#0a2137"/><path d="m748 490 25 68 22-35z" fill="#0c2239" stroke="#0c2239"/><path d="m795 523-22 35 8 5z" fill="#0d243c" stroke="#0d243c"/><path d="m795 523-14 40 75-46z" fill="#0d253c" stroke="#0d253c"/><path d="m856 517-75 46 106-8zm0 0 31 38 41-64z" fill="#0e263f" stroke="#0e263f"/><path d="m928 491-41 64 66 19z" fill="#0f2842" stroke="#0f2842"/><path d="m928 491 25 83 29-57z" fill="#102942" stroke="#102942"/><path d="m982 517-29 57 62-5z" fill="#112b45" stroke="#112b45"/><path d="m982 517 33 52 36-52z" fill="#112c45" stroke="#112c45"/><path d="m1051 517-36 52 68-31z" fill="#122d47" stroke="#122d47"/><path d="m1083 538-68 31 60 27z" fill="#142f4a" stroke="#142f4a"/><path d="m1083 538-8 58 61-18z" fill="#14304c" stroke="#14304c"/><path d="m1083 538 53 40 49-29z" fill="#15314d" stroke="#15314d"/><path d="m1083 538 102 11 14-36z" fill="#14304b" stroke="#14304b"/><path d="m1199 513-14 36 37-20z" fill="#15314e" stroke="#15314e"/><path d="m1222 529-37 20 19 48z" fill="#163350" stroke="#163350"/><path d="m1222 529-18 68 42 55z" fill="#183654" stroke="#183654"/><path d="m-57 574-1 42 69 31z" fill="#0b2137" stroke="#0b2137"/><path d="m50 560-39 87 53 3z" fill="#0d243b" stroke="#0d243b"/><path d="m50 560 14 90 61-59z" fill="#0d243c" stroke="#0d243c"/><path d="m50 560 75 31-17-46z" fill="#0c2239" stroke="#0c2239"/><path d="m108 545 17 46 101-24z" fill="#0d253d" stroke="#0d253d"/><path d="m125 591-61 59 37 40z" fill="#0f2740" stroke="#0f2740"/><path d="m125 591-24 99 53-9z" fill="#102942" stroke="#102942"/><path d="m125 591 29 90 13-63z" fill="#0f2841" stroke="#0f2841"/><path d="m125 591 42 27 24-11zm0 0 66 16 35-40z" fill="#0e2740" stroke="#0e2740"/><path d="m226 567-35 40 57-1zm0 0 22 39 45-34z" fill="#0f2942" stroke="#0f2942"/><path d="m293 572-45 34 107 8z" fill="#102a44" stroke="#102a44"/><path d="m293 572 62 42-35-52z" fill="#102a43" stroke="#102a43"/><path d="m320 562 35 52 14-7z" fill="#112b45" stroke="#112b45"/><path d="m320 562 49 45 12-58z" fill="#102a43" stroke="#102a43"/><path d="m381 549-12 58 60-20z" fill="#112b45" stroke="#112b45"/><path d="m429 587-60 20 78 19z" fill="#122d47" stroke="#122d47"/><path d="m429 587 18 39 51-19z" fill="#132e48" stroke="#132e48"/><path d="m527 576-29 31 49 49z" fill="#122c47" stroke="#122c47"/><path d="m527 576 20 80 31-58z" fill="#112b45" stroke="#112b45"/><path d="m578 598-31 58 81 3z" fill="#112c46" stroke="#112c46"/><path d="m578 598 50 61 4-84z" fill="#102942" stroke="#102942"/><path d="m632 575-4 84 60-60z" fill="#0f2841" stroke="#0f2841"/><path d="m688 599-60 60 79-50z" fill="#0f2740" stroke="#0f2740"/><path d="m688 599 19 10 66-51z" fill="#0d253d" stroke="#0d253d"/><path d="m773 558-66 51 83 14zm0 0 17 65-9-60z" fill="#0e263f" stroke="#0e263f"/><path d="m781 563 9 60 97-68z" fill="#0f2741" stroke="#0f2741"/><path d="m887 555-97 68 100 28z" fill="#112b44" stroke="#112b44"/><path d="m887 555 3 96 25-41z" fill="#112c46" stroke="#112c46"/><path d="m887 555 28 55 38-36z" fill="#112b44" stroke="#112b44"/><path d="m953 574-38 36 51 4zm0 0 13 40 49-45z" fill="#122d48" stroke="#122d48"/><path d="m1015 569-49 45 86 11z" fill="#142f4b" stroke="#142f4b"/><path d="m1015 569 37 56 23-29z" fill="#14304c" stroke="#14304c"/><path d="m1075 596-23 29 67 8zm0 0 44 37 17-55z" fill="#16334f" stroke="#16334f"/><path d="m1136 578-17 55 78-17z" fill="#173551" stroke="#173551"/><path d="m1136 578 61 38 7-19z" fill="#173552" stroke="#173552"/><path d="m1136 578 68 19-19-48z" fill="#163350" stroke="#163350"/><path d="m1204 597-7 19 49 36z" fill="#193755" stroke="#193755"/><path d="m-58 616 35 79 34-48z" fill="#0d233b" stroke="#0d233b"/><path d="m11 647-34 48 53 21z" fill="#0f263f" stroke="#0f263f"/><path d="m11 647 19 69 34-66z" fill="#0f273f" stroke="#0f273f"/><path d="m64 650-34 66 71-26z" fill="#102942" stroke="#102942"/><path d="m167 618-13 63 37-74z" fill="#102943" stroke="#102943"/><path d="m191 607-37 74 50 32z" fill="#112c46" stroke="#112c46"/><path d="m191 607 13 106 44-107z" fill="#112b46" stroke="#112b46"/><path d="m248 606-44 107 51 2z" fill="#132e49" stroke="#132e49"/><path d="m248 606 7 109 75-17z" fill="#132f4a" stroke="#132f4a"/><path d="m248 606 82 92 25-84z" fill="#122d48" stroke="#122d48"/><path d="m355 614-25 84 58 15z" fill="#14304c" stroke="#14304c"/><path d="m355 614 33 99-19-106z" fill="#132e49" stroke="#132e49"/><path d="m369 607 19 106 53-26z" fill="#14304c" stroke="#14304c"/><path d="m369 607 72 80 6-61z" fill="#132f4a" stroke="#132f4a"/><path d="m447 626-6 61 68 20z" fill="#15324e" stroke="#15324e"/><path d="m447 626 62 81-11-100z" fill="#142f4b" stroke="#142f4b"/><path d="m498 607 11 100 38-51z" fill="#132f4a" stroke="#132f4a"/><path d="m547 656-38 51 36-20z" fill="#14304c" stroke="#14304c"/><path d="m547 656-2 31 83-28z" fill="#132e49" stroke="#132e49"/><path d="m628 659-83 28 87-3z" fill="#132d48" stroke="#132d48"/><path d="m628 659 4 25 37 24z" fill="#122d47" stroke="#122d47"/><path d="m628 659 41 49 38-99z" fill="#112a44" stroke="#112a44"/><path d="m707 609-38 99 78-17zm0 0 40 82 18-32z" fill="#102943" stroke="#102943"/><path d="m707 609 58 50 25-36z" fill="#0f2842" stroke="#0f2842"/><path d="m765 659-18 32 48-9z" fill="#112c46" stroke="#112c46"/><path d="m765 659 30 23-5-59z" fill="#112b45" stroke="#112b45"/><path d="m790 623 5 59 56 13z" fill="#122d47" stroke="#122d47"/><path d="m790 623 61 72 39-44z" fill="#122d48" stroke="#122d48"/><path d="m890 651-39 44 69-1z" fill="#14304c" stroke="#14304c"/><path d="m890 651 30 43-5-84zm25-41 5 84 46-80z" fill="#132f4a" stroke="#132f4a"/><path d="m966 614-46 80 58-9z" fill="#15324d" stroke="#15324d"/><path d="m966 614 12 71 74-60z" fill="#15314d" stroke="#15314d"/><path d="m1052 625-74 60 98 2z" fill="#173451" stroke="#173451"/><path d="m1052 625 24 62 33-20z" fill="#183552" stroke="#183552"/><path d="m1052 625 57 42 10-34z" fill="#173551" stroke="#173551"/><path d="m1119 633-10 34 34 15z" fill="#183755" stroke="#183755"/><path d="m1119 633 24 49 54-66z" fill="#183754" stroke="#183754"/><path d="m1197 616-54 66 92-10z" fill="#193957" stroke="#193957"/><path d="m1197 616 38 56 11-20z" fill="#1a3958" stroke="#1a3958"/><path d="m30 716 225-1-51-2z" fill="#132e49" stroke="#132e49"/><path d="m30 716 174-3-103-23z" fill="#112c46" stroke="#112c46"/><path d="m101 690 103 23-50-32z" fill="#122c47" stroke="#122c47"/><path d="m255 715 133-2-58-15z" fill="#15324d" stroke="#15324d"/><path d="m388 713 281-5-160-1z" fill="#15324e" stroke="#15324e"/><path d="m388 713 121-6-68-20z" fill="#16334f" stroke="#16334f"/><path d="m509 707 160 1-124-21z" fill="#14304b" stroke="#14304b"/><path d="m545 687 124 21-37-24z" fill="#132e49" stroke="#132e49"/><path d="m669 708 407-21-156 7z" fill="#15314d" stroke="#15314d"/><path d="m669 708 251-14-69 1z" fill="#132f4a" stroke="#132f4a"/><path d="m669 708 182-13-104-4z" fill="#122d47" stroke="#122d47"/><path d="m747 691 104 4-56-13z" fill="#132e48" stroke="#132e48"/><path d="m920 694 156-7-98-2z" fill="#173451" stroke="#173451"/><path d="m1076 687 67-5-34-15z" fill="#193755" stroke="#193755"/></svg>